<svg width="16" height="16" viewBox="0 0 36 36" fill="none" xmlns="http://www.w3.org/2000/svg">
<path d="M11.999 24C9.10826 23.9913 6.31001 25.0184 4.11129 26.895C1.91257 28.7717 0.45885 31.3739 0.0135219 34.23C-0.106483 35.16 0.586545 36 1.52558 36H22.4724C23.4115 36 24.1075 35.16 23.9845 34.23C23.0935 28.35 17.9993 24 11.999 24ZM11.999 6C13.9882 6 15.896 6.79018 17.3025 8.1967C18.7091 9.60322 19.4993 11.5109 19.4993 13.5C19.4993 15.4891 18.7091 17.3968 17.3025 18.8033C15.896 20.2098 13.9882 21 11.999 21C10.0098 21 8.10208 20.2098 6.6955 18.8033C5.28892 17.3968 4.49871 15.4891 4.49871 13.5C4.49871 11.5109 5.28892 9.60322 6.6955 8.1967C8.10208 6.79018 10.0098 6 11.999 6ZM28.4997 8.34308e-08C28.8508 -0.000116958 29.1908 0.122914 29.4605 0.347668C29.7302 0.572422 29.9126 0.884658 29.9757 1.23L29.9998 1.5V6H34.4999C34.851 5.99988 35.191 6.12291 35.4608 6.34767C35.7305 6.57242 35.9128 6.88466 35.976 7.23L36 7.5C36 7.89783 35.842 8.27936 35.5606 8.56066C35.2793 8.84196 34.8978 9 34.4999 9H29.9998V13.5C30.0004 13.8748 29.8608 14.2364 29.6082 14.5134C29.3557 14.7903 29.0086 14.9628 28.6352 14.9966C28.2619 15.0305 27.8894 14.9234 27.5912 14.6963C27.2929 14.4693 27.0904 14.1388 27.0236 13.77L26.9996 13.5V9H22.4994C22.1484 9.00012 21.8083 8.87709 21.5386 8.65233C21.2689 8.42758 21.0866 8.11534 21.0234 7.77L20.9994 7.5C20.9994 7.10218 21.1574 6.72064 21.4387 6.43934C21.7201 6.15804 22.1016 6 22.4994 6H26.9996V1.5C26.9996 1.10218 27.1577 0.720645 27.439 0.43934C27.7203 0.158035 28.1019 8.34308e-08 28.4997 8.34308e-08Z" fill="#687a86"/>
</svg>
